<?xml version="1.0" standalone="no"?><!DOCTYPE svg PUBLIC "-//W3C//DTD SVG 1.1//EN" "http://www.w3.org/Graphics/SVG/1.1/DTD/svg11.dtd"><svg t="1605109411070" class="icon" viewBox="0 0 1024 1024" version="1.1" xmlns="http://www.w3.org/2000/svg" p-id="2507" xmlns:xlink="http://www.w3.org/1999/xlink" width="200" height="200"><defs><style type="text/css"></style></defs><path d="M281.366 829.296c29.819-9.318 61.968-13.046 89.924-27.489 10.716-13.512 15.841-30.751 19.103-47.059 6.057-31.683 107.629-488.758 106.231-526.031l0-11.648c-25.626-13.978-56.843-10.25-84.799-14.91l8.853-47.99c60.104 2.796 121.141 7.455 181.711 7.455 49.389 0 98.776-4.659 148.165-7.455-1.863 13.978-5.125 27.956-8.853 41.468-32.149 11.183-66.161 16.308-97.845 28.888-10.25 25.16-12.58 52.649-17.239 79.207-22.364 120.676-52.185 241.351-76.878 361.094-4.659 22.364-27.49 115.084-25.626 134.652l0.466 8.387c28.422 6.523 57.309 9.785 86.196 14.444-0.932 15.375-3.728 30.751-7.454 46.127-10.251 0-20.035 1.397-30.285 1.397-26.559 0-54.049-8.853-80.606-9.318-32.149-0.466-64.298-0.932-95.981-0.932-41.468 0-82.003 6.988-123.005 9.318L281.366 829.296z" p-id="2508" fill="#ffffff"></path></svg>